<?xml version="1.0" standalone="no"?>
<!DOCTYPE svg PUBLIC "-//W3C//DTD SVG 20010904//EN"
 "http://www.w3.org/TR/2001/REC-SVG-20010904/DTD/svg10.dtd">
<svg version="1.0" xmlns="http://www.w3.org/2000/svg"
 width="626.000000pt" height="396.000000pt" viewBox="0 0 626.000000 396.000000"
 preserveAspectRatio="xMidYMid meet">

<g transform="translate(0.000000,396.000000) scale(0.100000,-0.100000)"
fill="#000000" stroke="none">
<path d="M4 3648 c3 -172 6 -333 6 -358 1 -25 -2 -75 -5 -112 l-7 -68 36 0
c54 0 76 15 76 51 0 16 7 44 16 60 14 29 14 32 -3 51 -18 21 -18 21 9 14 37
-9 41 4 22 70 -28 96 -4 192 55 224 17 8 18 5 13 -35 -9 -83 50 -124 109 -76
33 27 32 104 -4 191 -14 35 -25 66 -23 68 8 8 63 -28 99 -64 70 -71 71 -152 2
-285 -72 -140 -81 -239 -21 -239 30 0 41 19 49 83 9 65 28 97 87 147 43 36 50
47 50 78 1 33 2 35 14 20 7 -10 16 -15 19 -11 8 7 2 -180 -8 -227 l-6 -35 20
24 c14 15 21 37 21 62 0 21 4 40 9 43 12 8 24 -105 15 -149 -7 -41 8 -65 41
-65 12 0 29 8 38 18 25 27 49 91 42 113 -10 29 3 23 20 -11 19 -36 19 -57 0
-94 -15 -28 -15 -28 13 -21 15 4 32 8 39 8 7 0 10 4 7 8 -2 4 0 10 6 14 5 3
10 16 11 28 0 21 1 21 9 2 6 -13 8 7 7 60 -2 64 2 87 16 109 25 38 110 76 171
76 l49 0 -63 -32 c-35 -18 -73 -46 -85 -61 l-20 -29 23 -19 c18 -14 28 -16 42
-9 30 16 33 12 11 -16 -25 -31 -27 -57 -7 -73 11 -10 20 -10 36 -1 30 16 35 7
22 -37 -17 -56 -63 -105 -126 -136 -30 -15 -60 -36 -66 -47 -17 -31 -12 -60
13 -69 27 -11 57 3 57 27 0 9 4 23 9 31 7 11 12 4 21 -27 9 -34 15 -42 35 -42
30 0 52 21 60 60 8 36 25 47 92 56 57 7 65 11 81 39 11 19 11 18 12 -8 0 -23
5 -29 30 -34 48 -9 44 -20 -13 -37 -53 -15 -107 -54 -107 -76 0 -7 8 -9 21 -5
18 6 20 4 14 -16 -7 -21 -6 -22 39 -16 l47 7 -31 -33 c-37 -40 -57 -94 -40
-110 13 -14 33 7 55 58 11 25 15 27 20 12 8 -18 3 -60 -10 -89 -15 -36 42 -20
108 31 114 87 128 92 268 84 115 -6 120 -7 93 -21 -15 -8 -64 -19 -108 -24
-94 -10 -156 -40 -170 -81 -14 -39 10 -59 78 -65 51 -4 58 -2 91 27 20 17 46
31 59 31 20 0 14 -10 -45 -70 -38 -38 -81 -73 -96 -76 -15 -4 -60 0 -101 8
-72 15 -74 15 -93 -6 -11 -11 -22 -32 -25 -46 -3 -14 -9 -33 -15 -42 -14 -26
21 -24 55 3 26 20 28 20 40 4 12 -16 18 -16 64 -4 47 11 56 11 89 -6 l38 -19
-53 -7 c-29 -4 -64 -14 -78 -24 l-26 -17 21 -22 21 -22 -32 -2 c-37 -3 -48 -9
-48 -26 0 -19 93 -57 179 -74 25 -5 41 -17 55 -41 l19 -33 -21 11 c-48 26
-122 -5 -122 -50 0 -10 -13 -23 -30 -31 -20 -9 -30 -20 -30 -35 0 -34 26 -43
68 -21 39 20 77 24 87 9 3 -5 -4 -13 -15 -16 -15 -5 -20 -14 -18 -28 4 -32 54
-33 127 -2 70 29 78 27 145 -32 39 -35 57 -38 111 -18 14 5 10 -3 -13 -24 -38
-37 -77 -40 -159 -14 -79 25 -100 -10 -30 -51 29 -17 30 -19 12 -26 -11 -4
-65 -5 -121 -2 -127 5 -146 -3 -142 -60 2 -31 10 -46 30 -61 37 -28 128 -34
188 -13 24 8 46 13 48 11 3 -2 -11 -20 -30 -39 -49 -49 -97 -60 -203 -44 l-86
12 -24 -29 c-13 -17 -24 -39 -25 -51 0 -21 34 -58 83 -89 28 -18 44 -55 32
-75 -4 -7 -17 -2 -37 15 -34 29 -73 32 -106 9 -52 -36 -11 -95 82 -114 66 -13
87 -35 94 -96 l5 -47 -34 26 c-75 57 -127 55 -115 -5 5 -27 -6 -38 -19 -18 -9
14 -68 13 -83 -2 -37 -37 8 -80 118 -112 46 -14 95 -33 109 -44 31 -23 38 -61
17 -99 -14 -26 -15 -26 -16 -6 -1 58 -103 109 -131 66 -11 -19 -14 -19 -39 -5
-32 18 -76 10 -82 -16 -7 -24 6 -48 45 -89 l31 -33 -32 9 c-64 19 -109 53
-147 112 -44 70 -87 90 -149 69 -20 -6 -36 -16 -36 -21 0 -20 73 -88 106 -99
42 -14 74 -54 74 -92 l0 -30 -31 26 c-17 14 -42 26 -56 26 -22 0 -25 -4 -21
-25 9 -42 -26 -12 -55 49 -32 68 -117 136 -117 94 0 -6 -6 -19 -14 -27 -13
-14 -12 -16 8 -17 67 -4 109 -68 108 -162 -1 -56 1 -64 21 -71 21 -8 46 -32
61 -59 5 -8 -8 -4 -31 8 -32 18 -48 20 -108 14 -64 -5 -72 -4 -90 16 -11 12
-34 28 -52 35 -36 15 -51 41 -84 143 -21 66 -25 72 -50 72 -60 0 -107 -76 -76
-123 8 -12 27 -29 43 -37 64 -32 82 -72 50 -115 -12 -17 -14 -17 -37 -2 -13
10 -36 17 -51 17 -38 0 -45 -30 -19 -83 12 -24 21 -51 21 -61 0 -16 -2 -16
-31 1 -17 10 -44 33 -60 50 -19 22 -34 31 -45 26 -14 -5 -15 -3 -6 14 9 16 7
33 -8 73 -21 56 -33 70 -64 70 -17 0 -18 -6 -13 -50 7 -59 -12 -69 -41 -21
-17 28 -19 29 -30 10 -7 -10 -12 -33 -12 -50 0 -32 0 -32 -21 -13 -24 21 -124
30 -146 13 -21 -18 -15 -36 32 -89 25 -28 48 -62 51 -75 8 -34 -3 -90 -21
-105 -13 -11 -15 -8 -15 19 0 18 -7 45 -15 61 -17 33 -72 70 -105 70 -19 0
-21 -4 -16 -26 7 -27 -1 -26 -37 4 -16 14 -17 3 -17 -221 l0 -237 3130 0 3130
0 0 1980 0 1980 -3130 0 -3131 0 5 -312z m5846 102 c0 -5 -4 -10 -10 -10 -5 0
-10 5 -10 10 0 6 5 10 10 10 6 0 10 -4 10 -10z m-960 -10 c0 -5 -4 -10 -10
-10 -5 0 -10 5 -10 10 0 6 5 10 10 10 6 0 10 -4 10 -10z m-2246 -31 c-3 -5
-10 -7 -15 -3 -5 3 -7 10 -3 15 3 5 10 7 15 3 5 -3 7 -10 3 -15z m-1734 1 c0
-5 -4 -10 -9 -10 -6 0 -13 5 -16 10 -3 6 1 10 9 10 9 0 16 -4 16 -10z m3500
-10 c0 -5 -4 -10 -10 -10 -5 0 -10 5 -10 10 0 6 5 10 10 10 6 0 10 -4 10 -10z
m-2460 -160 c0 -5 -7 -10 -15 -10 -8 0 -15 5 -15 10 0 6 7 10 15 10 8 0 15 -4
15 -10z m1630 -20 c0 -5 -7 -10 -16 -10 -8 0 -12 5 -9 10 3 6 10 10 16 10 5 0
9 -4 9 -10z m1835 -30 c3 -5 -1 -10 -10 -10 -9 0 -13 5 -10 10 3 6 8 10 10 10
2 0 7 -4 10 -10z m-3041 -171 c-3 -5 -10 -7 -15 -3 -5 3 -7 10 -3 15 3 5 10 7
15 3 5 -3 7 -10 3 -15z m2156 11 c0 -5 -4 -10 -10 -10 -5 0 -10 5 -10 10 0 6
5 10 10 10 6 0 10 -4 10 -10z m-3156 -31 c-3 -5 -10 -7 -15 -3 -5 3 -7 10 -3
15 3 5 10 7 15 3 5 -3 7 -10 3 -15z m2556 11 c0 -5 -4 -10 -10 -10 -5 0 -10 5
-10 10 0 6 5 10 10 10 6 0 10 -4 10 -10z m-565 -41 c-46 -11 -291 -98 -280
-99 12 -1 -143 -63 -235 -93 -36 -12 -67 -24 -70 -27 -3 -3 -18 -3 -35 1 l-30
7 27 1 c37 1 64 41 48 70 -15 29 -45 26 -77 -8 -22 -22 -30 -26 -40 -16 -16
18 26 91 52 88 11 -1 28 3 39 9 40 21 144 39 249 43 59 2 124 8 145 14 20 5
44 9 52 9 28 0 134 13 138 16 2 2 13 1 25 -2 20 -5 19 -7 -8 -13z m2605 -39
c0 -5 -4 -10 -10 -10 -5 0 -10 5 -10 10 0 6 5 10 10 10 6 0 10 -4 10 -10z
m-4220 -50 c0 -5 -4 -10 -10 -10 -5 0 -10 5 -10 10 0 6 5 10 10 10 6 0 10 -4
10 -10z m3154 -51 c-3 -5 -10 -7 -15 -3 -5 3 -7 10 -3 15 3 5 10 7 15 3 5 -3
7 -10 3 -15z m-1240 -70 c-3 -5 -10 -7 -15 -3 -5 3 -7 10 -3 15 3 5 10 7 15 3
5 -3 7 -10 3 -15z m-816 -16 c-10 -2 -28 -2 -40 0 -13 2 -5 4 17 4 22 1 32 -1
23 -4z m1582 -34 c0 -5 -4 -9 -10 -9 -5 0 -10 7 -10 16 0 8 5 12 10 9 6 -3 10
-10 10 -16z m-1510 -58 c0 -5 -7 -11 -15 -15 -20 -7 -19 -33 3 -45 9 -6 12
-11 7 -11 -16 0 -35 22 -35 40 0 17 18 40 32 40 4 0 8 -4 8 -9z m58 -3 c28
-28 -3 -83 -33 -58 -8 7 -15 20 -15 29 0 17 18 41 30 41 3 0 11 -5 18 -12z
m128 0 c4 -7 3 -8 -4 -4 -7 4 -12 2 -12 -3 0 -6 6 -11 13 -12 10 0 10 -2 0 -6
-7 -2 -13 -11 -13 -19 0 -9 5 -12 10 -9 6 3 10 1 10 -4 0 -6 -6 -11 -14 -11
-17 0 -27 68 -11 74 5 2 11 5 12 5 1 1 5 -4 9 -11z m56 -6 c-6 -2 -12 -15 -12
-29 0 -33 -5 -27 -13 13 -6 29 -4 31 16 26 12 -3 16 -7 9 -10z m-122 -35 c0
-5 -6 -4 -14 2 -11 10 -15 8 -19 -6 -3 -10 -5 -3 -6 16 -1 33 -1 34 19 16 11
-10 20 -22 20 -28z m19 11 c0 -31 -1 -31 -10 -10 -5 13 -7 28 -3 33 10 16 14
9 13 -23z m975 -19 c-3 -5 -10 -7 -15 -3 -5 3 -7 10 -3 15 3 5 10 7 15 3 5 -3
7 -10 3 -15z m1391 -8 c3 -5 1 -12 -5 -16 -5 -3 -10 1 -10 9 0 18 6 21 15 7z
m370 -41 c3 -5 -1 -10 -10 -10 -9 0 -13 5 -10 10 3 6 8 10 10 10 2 0 7 -4 10
-10z m-3671 -41 c-3 -5 -10 -7 -15 -3 -5 3 -7 10 -3 15 3 5 10 7 15 3 5 -3 7
-10 3 -15z m2831 4 c61 -22 181 -132 171 -158 -3 -9 -2 -14 3 -10 15 9 34 -65
35 -131 l0 -61 45 -29 c72 -45 159 -121 166 -145 5 -14 2 -25 -6 -30 -20 -12
-79 -11 -79 2 0 6 -9 8 -21 4 -13 -4 -25 -2 -29 5 -4 7 -22 13 -39 14 -17 0
-31 5 -31 10 0 4 -7 6 -15 2 -8 -3 -15 -1 -15 4 0 21 -44 8 -84 -25 -71 -58
-130 -79 -216 -78 -41 0 -86 6 -100 12 -24 10 -23 11 8 5 17 -3 32 -2 31 3 0
4 -22 26 -49 48 -27 22 -49 45 -49 51 -1 16 -42 66 -49 60 -2 -3 1 -13 9 -23
9 -11 10 -14 2 -9 -8 4 -13 2 -13 -6 0 -10 -3 -9 -9 2 -6 8 -7 18 -4 23 3 5
-3 4 -14 -1 -15 -8 -19 -7 -19 7 0 13 6 17 21 13 17 -4 16 -2 -6 16 -15 12
-32 35 -39 52 -7 16 -17 30 -22 30 -6 0 -8 7 -4 15 3 8 1 15 -4 15 -6 0 -10
19 -10 43 0 39 -3 44 -44 70 -24 15 -47 27 -52 27 -5 1 -22 12 -39 26 -16 15
-24 23 -17 20 17 -10 15 -1 -5 15 -11 10 -14 10 -9 2 4 -7 3 -13 -3 -13 -15 0
-53 68 -45 81 10 17 116 6 207 -21 l76 -23 38 30 c74 58 111 71 208 72 43 1
89 -6 120 -16z m-1519 -120 c-10 -10 -19 5 -10 18 6 11 8 11 12 0 2 -7 1 -15
-2 -18z m-866 -23 c0 -5 -4 -10 -10 -10 -5 0 -10 5 -10 10 0 6 5 10 10 10 6 0
10 -4 10 -10z m431 -73 c-1 -12 -15 -9 -19 4 -3 6 1 10 8 8 6 -3 11 -8 11 -12z
m889 -97 c0 -5 -4 -10 -10 -10 -5 0 -10 5 -10 10 0 6 5 10 10 10 6 0 10 -4 10
-10z m300 -25 c0 -8 -4 -15 -10 -15 -5 0 -10 7 -10 15 0 8 5 15 10 15 6 0 10
-7 10 -15z m1346 -20 c-3 -10 1 -15 12 -15 15 -1 14 -2 -3 -12 -19 -11 -19
-11 0 -19 19 -7 18 -8 -2 -8 -16 -1 -23 5 -23 18 0 22 10 51 17 51 3 0 3 -7
-1 -15z m68 9 c22 -8 20 -26 -4 -47 -19 -16 -20 -16 -20 18 0 38 0 38 24 29z
m66 -5 c0 -6 -4 -8 -9 -4 -5 3 -11 -9 -13 -27 l-3 -33 -5 36 c-5 29 -2 35 12
36 10 1 18 -3 18 -8z m60 -24 c0 -19 -4 -35 -8 -35 -4 0 -6 16 -4 35 2 19 6
35 8 35 2 0 4 -16 4 -35z m100 24 c-12 -9 -13 -12 -1 -16 11 -5 11 -7 0 -14
-12 -8 -11 -11 1 -19 13 -8 12 -10 -2 -10 -14 0 -18 8 -18 35 0 27 4 35 18 35
15 0 15 -2 2 -11z m-327 -12 c3 10 5 2 6 -17 l0 -35 -19 23 -19 22 -4 -22 c-3
-16 -5 -13 -6 11 -1 33 0 34 18 17 18 -17 19 -17 24 1z m189 -16 c2 -17 1 -28
-4 -25 -8 5 -12 54 -4 54 2 0 6 -13 8 -29z m73 12 c7 -17 8 -16 15 2 7 16 9
13 9 -15 l1 -35 -19 24 -19 25 -5 -25 c-3 -20 -5 -18 -6 9 -1 34 12 43 24 15z
m325 -23 c0 -5 -2 -10 -4 -10 -3 0 -8 5 -11 10 -3 6 -1 10 4 10 6 0 11 -4 11
-10z m-1540 -20 c6 -11 8 -20 6 -20 -3 0 -10 9 -16 20 -6 11 -8 20 -6 20 3 0
10 -9 16 -20z m-1925 -60 c-19 -7 -19 -7 -1 -17 23 -13 15 -44 -11 -42 -17 1
-17 2 0 6 21 5 22 22 2 29 -8 4 -15 12 -15 19 0 15 20 25 34 17 5 -3 1 -8 -9
-12z m-725 0 c0 -5 -7 -10 -15 -10 -8 0 -15 5 -15 10 0 6 7 10 15 10 8 0 15
-4 15 -10z m484 -12 l7 -23 9 23 c7 16 17 22 37 21 15 0 22 -3 16 -6 -7 -2
-13 -9 -13 -14 0 -6 5 -7 10 -4 6 3 10 2 10 -4 0 -5 -6 -12 -12 -14 -10 -4 -9
-8 2 -17 13 -9 12 -11 -5 -8 -13 2 -22 13 -25 33 l-6 30 -7 -27 c-10 -36 -22
-35 -36 2 -5 17 -6 30 -2 30 5 0 12 -10 15 -22z m110 -16 c-9 -31 -20 -28 -18
6 2 36 3 37 14 26 5 -5 7 -19 4 -32z m36 7 c0 -31 -19 -37 -28 -9 -3 8 0 10 8
5 10 -6 12 -2 8 13 -4 12 -2 22 3 22 5 0 9 -14 9 -31z m35 -24 c5 0 13 14 17
30 6 29 6 29 5 -5 -2 -28 -6 -35 -22 -35 -16 0 -20 7 -22 35 -1 34 -1 34 5 5
4 -16 12 -30 17 -30z m1580 10 c85 -23 149 -61 210 -127 134 -145 160 -335 69
-509 -65 -123 -185 -207 -329 -231 -170 -28 -376 77 -456 233 -76 151 -60 336
43 482 22 30 103 94 155 121 87 45 208 57 308 31z m-775 -25 c0 -5 -4 -10 -10
-10 -5 0 -10 5 -10 10 0 6 5 10 10 10 6 0 10 -4 10 -10z m2282 -34 c10 -6 21
-18 23 -27 3 -9 16 -21 29 -27 16 -7 26 -22 31 -49 4 -21 12 -41 18 -45 20
-13 95 -9 100 5 3 6 6 1 6 -13 1 -26 1 -26 -61 -20 -65 7 -78 1 -78 -32 0 -20
-59 -68 -85 -68 -25 0 -138 56 -159 79 -43 47 -3 170 66 204 34 17 76 15 110
-7z m-947 -26 c3 -6 -1 -7 -9 -4 -18 7 -21 14 -7 14 6 0 13 -4 16 -10z m-2120
-55 c96 -38 148 -161 111 -260 -23 -58 -90 -118 -149 -131 -53 -13 -81 -6 -67
16 18 28 10 33 -15 10 -18 -17 -28 -21 -36 -13 -7 7 -6 15 5 25 8 9 12 18 9
22 -11 11 -23 6 -23 -8 0 -45 -50 -22 -91 42 -48 76 -40 183 19 245 64 68 148
86 237 52z m593 -33 c3 -30 1 -33 -20 -30 -23 3 -34 27 -24 54 11 28 41 11 44
-24z m60 29 c8 -4 12 -19 10 -32 -2 -18 -9 -24 -28 -24 -28 0 -39 27 -20 50
14 17 20 18 38 6z m33 -36 c-9 -30 -9 -30 -10 10 -1 25 2 36 9 29 6 -6 6 -21
1 -39z m39 9 c0 -31 -2 -35 -15 -24 -17 14 -21 35 -5 25 6 -3 10 3 10 14 0 12
2 21 5 21 3 0 5 -16 5 -36z m-235 9 c6 -17 7 -17 16 0 16 27 29 20 28 -15 -1
-30 -2 -31 -8 -8 -4 16 -9 21 -14 13 -4 -7 -14 -10 -21 -7 -8 3 -16 -2 -19
-13 -3 -10 -5 -4 -6 15 -1 34 13 43 24 15z m1632 -72 c-17 -6 -17 -8 -3 -20
23 -20 20 -41 -6 -40 -17 1 -19 2 -5 6 21 6 22 12 0 28 -19 14 -10 35 15 34
15 0 15 -1 -1 -8z m69 -59 c-4 -3 -6 0 -6 6 0 7 -7 12 -15 12 -8 0 -15 -5 -15
-12 0 -6 -3 -8 -6 -5 -4 4 -1 21 7 39 l13 32 14 -33 c7 -18 11 -36 8 -39z m47
61 c-7 -2 -14 -19 -14 -36 l-2 -32 -4 30 c-3 16 -10 33 -16 37 -7 4 2 7 18 7
17 0 24 -3 18 -6z m113 -33 c2 -30 0 -32 -11 -16 -13 17 -13 17 -18 -1 -3 -10
-5 -1 -6 20 -1 31 2 38 16 35 12 -2 18 -14 19 -38z m-89 8 c-3 -8 -6 -5 -6 6
-1 11 2 17 5 13 3 -3 4 -12 1 -19z m33 -8 c0 -23 -4 -30 -20 -30 -11 0 -20 4
-20 10 0 5 7 7 15 4 11 -5 15 1 15 20 0 14 2 26 5 26 3 0 5 -13 5 -30z m107 6
c12 -13 20 -26 16 -30 -3 -3 -13 4 -22 16 l-15 22 -7 -24 c-6 -23 -7 -22 -8 8
-1 38 6 40 36 8z m843 -61 c-30 -49 -34 -44 -8 11 13 25 24 40 26 35 2 -6 -6
-27 -18 -46z m-2625 35 c14 -5 29 -20 34 -32 9 -25 -6 -71 -20 -62 -5 3 -9 0
-9 -5 0 -19 -45 -12 -68 9 -27 26 -28 54 -2 80 23 23 29 24 65 10z m-160 -187
c34 -17 85 -62 85 -75 0 -5 -4 -6 -10 -3 -6 3 -7 -1 -3 -10 4 -13 7 -14 14 -4
13 22 39 -54 39 -113 0 -30 -9 -71 -19 -94 -25 -55 -92 -110 -151 -124 -54
-13 -123 -5 -99 11 9 6 4 7 -15 3 -20 -5 -27 -4 -22 4 4 7 2 10 -7 7 -24 -10
-104 71 -121 122 -20 58 -20 89 -1 144 21 59 57 103 102 124 74 36 145 39 208
8z m285 -13 c0 -5 -4 -10 -10 -10 -5 0 -10 5 -10 10 0 6 5 10 10 10 6 0 10 -4
10 -10z m1350 -40 c0 -5 -4 -10 -10 -10 -5 0 -10 5 -10 10 0 6 5 10 10 10 6 0
10 -4 10 -10z m450 -40 c0 -5 -4 -10 -10 -10 -5 0 -10 5 -10 10 0 6 5 10 10
10 6 0 10 -4 10 -10z m887 -24 c22 -20 26 -27 16 -37 -18 -18 -16 -34 2 -19
26 21 18 -35 -9 -66 -35 -41 -89 -39 -127 4 -16 18 -29 43 -29 56 0 35 36 74
73 79 17 2 35 5 39 5 4 1 20 -9 35 -22z m-3858 -15 c8 -5 10 -14 5 -22 -6 -11
-5 -12 7 -2 13 11 19 9 36 -10 33 -36 43 -63 43 -114 0 -59 -33 -112 -83 -137
-43 -20 -101 -22 -94 -3 3 9 -4 12 -24 11 -15 -1 -33 4 -40 12 -9 12 -6 12 20
3 23 -8 35 -8 46 1 11 9 19 8 40 -6 l26 -17 -7 26 c-6 28 9 38 19 12 12 -31
75 5 77 45 1 8 3 29 6 47 2 18 -1 35 -6 38 -6 3 -10 2 -10 -4 0 -5 -13 -18
-30 -27 -33 -20 -22 -36 20 -28 l25 4 -24 -10 c-18 -8 -21 -13 -12 -24 9 -11
5 -13 -21 -10 -17 2 -33 6 -35 8 -3 2 -21 -7 -40 -20 -25 -17 -43 -22 -57 -17
-12 3 -31 7 -43 7 -12 0 -19 4 -17 8 3 4 -1 8 -9 8 -17 0 -37 42 -37 77 0 46
39 112 79 133 37 20 116 26 140 11z m3183 -81 c37 -11 108 -68 108 -88 0 -5
-10 -8 -22 -5 -14 4 -20 2 -15 -3 5 -5 13 -10 18 -10 5 -1 13 -2 18 -3 15 -2
20 -57 10 -97 -12 -44 -49 -88 -93 -111 -66 -35 -179 -9 -192 44 -4 13 -10 21
-15 18 -11 -8 -25 22 -34 71 -11 72 28 142 100 175 46 21 66 23 117 9z m-2742
-90 c0 -5 -7 -10 -15 -10 -8 0 -15 5 -15 10 0 6 7 10 15 10 8 0 15 -4 15 -10z
m1844 -61 c-3 -5 -10 -7 -15 -3 -5 3 -7 10 -3 15 3 5 10 7 15 3 5 -3 7 -10 3
-15z m1410 5 c22 -8 20 -26 -4 -47 -19 -16 -20 -16 -20 18 0 38 0 38 24 29z
m54 -57 c12 -3 10 -5 -5 -6 -20 -1 -23 3 -21 37 1 36 1 36 5 5 3 -19 11 -34
21 -36z m113 26 c-4 -31 -6 -33 -9 -13 -2 14 -9 31 -14 38 -8 9 -5 12 9 12 16
0 18 -5 14 -37z m67 -2 c3 -29 1 -32 -20 -29 -26 3 -38 45 -16 59 21 14 33 5
36 -30z m-133 -21 c8 0 16 12 18 28 l4 27 2 -27 c0 -18 -6 -31 -18 -37 -24
-13 -31 -5 -30 33 2 30 2 30 6 4 2 -16 10 -28 18 -28z m-2465 -50 c0 -5 -2
-10 -4 -10 -3 0 -8 5 -11 10 -3 6 -1 10 4 10 6 0 11 -4 11 -10z m-66 -25 c-5
-11 1 -15 25 -15 17 0 31 5 31 10 0 6 4 10 10 10 5 0 7 -7 4 -15 -6 -14 6 -20
29 -16 5 1 5 -3 2 -9 -5 -7 -22 -9 -47 -5 -32 6 -44 3 -61 -13 -12 -11 -29
-22 -37 -25 -12 -4 -11 -6 3 -6 9 -1 26 8 37 19 26 26 36 25 72 -5 16 -14 36
-25 43 -25 8 0 17 -5 21 -12 4 -7 3 -8 -5 -4 -6 4 -17 3 -24 -2 -24 -20 -81
-29 -102 -16 -30 19 -67 21 -73 5 -3 -10 1 -12 18 -8 25 6 50 -1 50 -14 0 -10
-86 -6 -112 6 -10 4 -18 16 -18 27 0 10 4 17 9 14 4 -3 6 6 3 19 -3 17 4 36
22 60 23 30 33 35 66 35 31 0 38 -3 34 -15z m1576 -15 c0 -5 -4 -10 -10 -10
-5 0 -10 5 -10 10 0 6 5 10 10 10 6 0 10 -4 10 -10z m-3041 -67 c0 -33 -1 -35
-9 -15 -8 20 -4 52 6 52 2 0 4 -17 3 -37z m41 27 c-13 -9 -13 -11 0 -20 10 -6
11 -10 3 -10 -7 0 -13 -4 -13 -10 0 -5 7 -10 16 -10 8 0 13 -4 9 -10 -11 -18
-35 2 -35 29 0 30 7 41 24 41 6 0 4 -5 -4 -10z m67 -28 c1 -27 -1 -31 -13 -21
-11 9 -14 8 -14 -2 -1 -11 -3 -10 -10 2 -13 23 -1 61 19 57 10 -2 17 -15 18
-36z m41 27 c-22 -12 -24 -49 -3 -49 8 0 15 -4 15 -10 0 -14 -13 -13 -28 2
-16 16 -15 55 1 61 22 9 32 7 15 -4z m149 -7 c4 -9 9 -10 19 -1 9 8 14 8 14 1
0 -6 -5 -14 -10 -17 -6 -4 -8 -10 -5 -15 3 -5 1 -11 -4 -14 -5 -3 -12 9 -16
27 -6 28 -8 29 -14 12 -5 -11 -6 -27 -3 -35 5 -13 3 -13 -10 -2 -13 10 -17 10
-21 0 -3 -7 -6 4 -6 24 -1 35 1 38 25 36 15 -2 29 -8 31 -16z m1743 8 c9 -6
17 -5 21 2 4 5 9 -4 11 -21 3 -18 1 -34 -4 -37 -4 -3 -8 2 -8 10 0 20 -14 20
-34 0 -15 -14 -16 -12 -16 20 0 38 5 42 30 26z m83 -2 c-4 -7 -9 -22 -10 -32
-6 -35 -13 -30 -13 7 0 27 4 37 16 37 10 0 12 -5 7 -12z m37 -3 c-10 -12 -9
-15 6 -16 17 -1 17 -2 2 -6 -22 -6 -24 -23 -2 -23 8 0 13 -4 9 -10 -11 -18
-35 2 -35 29 0 29 7 41 23 41 5 0 4 -7 -3 -15z m66 3 c10 -16 12 -58 3 -58 -4
0 -10 6 -12 13 -4 9 -8 8 -16 -3 -9 -12 -11 -9 -11 16 0 42 19 59 36 32z
m-2272 -25 c-10 -40 -14 -41 -14 -5 0 18 5 32 10 32 6 0 8 -11 4 -27z m236 2
c0 -14 5 -25 10 -25 6 0 10 12 10 28 0 19 3 23 9 13 13 -20 1 -51 -19 -51 -18
0 -30 19 -30 46 0 8 5 14 10 14 6 0 10 -11 10 -25z m1729 -39 c-9 -8 -10 -7
-5 7 3 10 7 28 7 40 2 16 3 14 6 -7 3 -16 -1 -34 -8 -40z m43 34 c3 -16 1 -30
-4 -30 -4 0 -8 14 -8 30 0 17 2 30 4 30 2 0 6 -13 8 -30z m29 -11 c-10 -23
-10 -22 -8 8 0 18 5 29 9 25 5 -5 4 -19 -1 -33z m-1103 24 c-21 -5 -24 -23 -5
-24 10 0 10 -2 0 -6 -20 -8 -15 -23 7 -23 11 0 20 7 20 16 0 8 4 13 9 10 5 -4
7 4 3 16 -5 20 -3 21 11 10 9 -8 18 -23 20 -35 3 -16 5 -13 6 10 1 31 2 31 53
31 29 1 47 -2 41 -6 -6 -4 -13 -21 -16 -37 l-4 -30 -2 33 c0 17 -5 32 -10 32
-13 0 -24 -37 -16 -52 4 -7 0 -5 -8 5 -15 18 -16 18 -25 1 -9 -16 -12 -16 -26
-4 -13 10 -20 10 -28 2 -7 -7 -22 -12 -35 -12 -20 0 -23 5 -23 35 0 30 3 35
23 34 16 -1 18 -2 5 -6z m207 -23 c7 0 16 8 18 18 3 9 5 -1 5 -23 0 -22 -2
-32 -5 -22 -2 9 -11 17 -18 17 -7 0 -16 -8 -18 -17 -3 -10 -5 0 -5 22 0 22 2
32 5 23 2 -10 11 -18 18 -18z m-1120 10 c3 -5 1 -10 -4 -10 -6 0 -11 5 -11 10
0 6 2 10 4 10 3 0 8 -4 11 -10z m1565 -69 c0 -6 -5 -13 -10 -16 -6 -4 -8 -10
-5 -15 3 -4 -4 -10 -14 -13 -13 -3 -22 3 -29 19 -10 20 -8 23 11 27 39 8 47 7
47 -2z m91 -28 c-12 -20 -14 -14 -5 12 4 9 9 14 11 11 3 -2 0 -13 -6 -23z
m-183 2 c13 -4 22 -14 22 -26 0 -20 0 -20 -27 1 -23 18 -29 19 -37 7 -7 -10
-14 -11 -31 -3 l-23 10 22 12 c21 12 30 12 74 -1z m122 11 c0 -3 -4 -8 -10
-11 -5 -3 -10 -1 -10 4 0 6 5 11 10 11 6 0 10 -2 10 -4z m1685 -14 c6 -4 11
-19 10 -34 0 -19 -3 -24 -12 -17 -7 7 -13 5 -16 -3 -3 -7 -6 4 -6 25 -1 37 5
43 24 29z m157 -26 c2 -19 0 -32 -4 -30 -8 5 -12 64 -4 64 2 0 6 -15 8 -34z
m76 27 c-22 -6 -23 -19 -3 -27 24 -9 18 -36 -7 -35 -17 1 -19 2 -5 6 21 6 22
12 0 28 -19 14 -9 36 15 34 15 -1 15 -2 0 -6z m-804 -24 c-3 -5 -10 -7 -15 -3
-5 3 -7 10 -3 15 3 5 10 7 15 3 5 -3 7 -10 3 -15z m501 -29 c8 0 16 12 18 28
4 25 4 24 6 -6 1 -29 -2 -33 -21 -30 -17 2 -23 10 -24 28 -1 22 0 22 3 3 2
-13 10 -23 18 -23z m121 34 c-3 -8 -2 -13 3 -10 5 3 11 -4 14 -16 4 -15 3 -18
-5 -10 -8 8 -15 9 -25 1 -14 -12 -16 -6 -7 29 4 12 11 22 16 22 6 0 7 -7 4
-16z m64 -16 c0 -5 -4 -7 -9 -3 -5 3 -12 -3 -14 -12 -3 -10 -5 -3 -6 16 -1 29
1 32 14 21 8 -7 15 -17 15 -22z m16 -26 c-11 -10 -14 3 -8 33 l7 30 3 -28 c2
-16 1 -31 -2 -35z m64 28 c0 -16 -4 -30 -8 -30 -5 0 -7 14 -4 30 2 17 6 30 8
30 2 0 4 -13 4 -30z m-1905 10 c-3 -5 -12 -10 -18 -10 -7 0 -6 4 3 10 19 12
23 12 15 0z m65 -14 c0 -3 -4 -8 -10 -11 -5 -3 -10 -1 -10 4 0 6 5 11 10 11 6
0 10 -2 10 -4z m210 -105 c0 -6 -4 -13 -10 -16 -5 -3 -10 1 -10 9 0 9 5 16 10
16 6 0 10 -4 10 -9z m2245 -1 c3 -5 -1 -10 -10 -10 -9 0 -13 5 -10 10 3 6 8
10 10 10 2 0 7 -4 10 -10z m-4195 -28 c0 -13 -12 -22 -22 -16 -10 6 -1 24 13
24 5 0 9 -4 9 -8z m1548 -35 c14 25 24 11 16 -22 -5 -20 -9 -23 -15 -13 -5 7
-9 9 -9 4 0 -5 -6 -3 -14 3 -11 10 -15 8 -19 -6 -3 -10 -5 -3 -6 16 -1 33 0
34 18 17 18 -17 20 -17 29 1z m67 -19 c11 -26 15 -28 16 -13 1 11 1 26 0 33
-2 9 6 12 20 10 17 -2 22 -10 23 -36 1 -26 -1 -29 -10 -17 -10 14 -13 14 -24
0 -10 -12 -16 -13 -26 -4 -11 9 -18 8 -31 -2 -15 -12 -16 -12 -9 6 5 11 11 28
13 38 7 24 12 22 28 -15z m102 25 c-17 -4 -17 -6 -2 -23 19 -21 12 -41 -13
-39 -15 1 -15 2 1 6 21 6 22 19 2 27 -24 9 -18 36 8 35 18 -1 18 -2 4 -6z
m673 -23 c0 -5 -4 -10 -10 -10 -5 0 -10 5 -10 10 0 6 5 10 10 10 6 0 10 -4 10
-10z m-1620 -20 c0 -5 -4 -10 -10 -10 -5 0 -10 5 -10 10 0 6 5 10 10 10 6 0
10 -4 10 -10z m520 -30 c0 -5 -4 -10 -10 -10 -5 0 -10 5 -10 10 0 6 5 10 10
10 6 0 10 -4 10 -10z m1686 -167 c-10 -10 -19 5 -10 18 6 11 8 11 12 0 2 -7 1
-15 -2 -18z m1099 -23 c3 -5 -1 -10 -10 -10 -9 0 -13 5 -10 10 3 6 8 10 10 10
2 0 7 -4 10 -10z m-3705 -10 c0 -5 -4 -10 -10 -10 -5 0 -10 5 -10 10 0 6 5 10
10 10 6 0 10 -4 10 -10z m3340 -18 c0 -13 -12 -22 -22 -16 -10 6 -1 24 13 24
5 0 9 -4 9 -8z m-4262 -39 c-22 -6 -23 -19 -3 -27 24 -9 18 -36 -7 -35 -17 1
-19 2 -5 6 21 6 22 12 0 28 -19 14 -9 36 15 34 15 -1 15 -2 0 -6z m47 -53 c8
0 16 12 18 28 4 25 4 25 3 -3 -1 -23 -6 -30 -21 -30 -15 0 -21 8 -22 33 -3 32
-3 32 3 2 3 -16 11 -30 19 -30z m65 28 c0 -5 -4 -7 -9 -3 -5 3 -12 -5 -14 -17
-3 -14 -5 -8 -6 16 -1 33 1 37 14 26 8 -7 15 -17 15 -22z m22 -21 c-8 -30 -21
-5 -15 28 5 25 7 27 13 10 4 -11 5 -28 2 -38z m2072 22 c-3 -5 -10 -7 -15 -3
-5 3 -7 10 -3 15 3 5 10 7 15 3 5 -3 7 -10 3 -15z m-1924 -23 c0 -2 -8 -10
-17 -17 -16 -13 -17 -12 -4 4 13 16 21 21 21 13z m1170 -51 c0 -8 -4 -15 -10
-15 -5 0 -10 7 -10 15 0 8 5 15 10 15 6 0 10 -7 10 -15z m1550 -65 c0 -5 -4
-10 -10 -10 -5 0 -10 5 -10 10 0 6 5 10 10 10 6 0 10 -4 10 -10z m790 -54 c0
-11 -19 -15 -25 -6 -3 5 1 10 9 10 9 0 16 -2 16 -4z m920 -62 c0 -8 -5 -12
-10 -9 -6 4 -8 11 -5 16 9 14 15 11 15 -7z m-3870 -74 c0 -5 -4 -10 -10 -10
-5 0 -10 5 -10 10 0 6 5 10 10 10 6 0 10 -4 10 -10z m-1280 -20 c0 -5 -4 -10
-10 -10 -5 0 -10 5 -10 10 0 6 5 10 10 10 6 0 10 -4 10 -10z m3035 -90 c-3 -5
-10 -10 -16 -10 -5 0 -9 5 -9 10 0 6 7 10 16 10 8 0 12 -4 9 -10z"/>
<path d="M2945 2928 c-9 -26 12 -49 25 -28 14 22 12 37 -4 43 -9 4 -17 -2 -21
-15z"/>
<path d="M4492 2685 c21 -19 41 -35 45 -35 5 0 15 13 24 29 17 29 17 29 -13
35 -17 3 -45 6 -62 6 l-31 -1 37 -34z"/>
<path d="M5123 2523 c-7 -2 -13 -9 -13 -14 0 -6 4 -8 9 -5 5 4 11 3 14 -1 2
-5 2 -3 1 4 -2 6 2 14 9 17 7 2 8 4 2 4 -5 0 -16 -2 -22 -5z"/>
<path d="M5143 2390 c-11 -29 -10 -30 25 -40 45 -12 72 -13 72 -2 0 11 -64 72
-76 72 -5 0 -15 -13 -21 -30z"/>
<path d="M5590 2446 c0 -9 5 -16 10 -16 6 0 10 4 10 9 0 6 -4 13 -10 16 -5 3
-10 -1 -10 -9z"/>
<path d="M2643 2056 c-13 -6 -25 -17 -28 -25 -5 -12 -3 -12 12 0 10 8 14 9 10
2 -10 -16 31 -39 45 -25 11 11 3 63 -10 61 -4 -1 -17 -6 -29 -13z"/>
<path d="M3146 2153 c-12 -12 -6 -43 9 -43 8 0 15 9 15 19 0 21 -13 34 -24 24z"/>
<path d="M3206 2143 c-9 -22 10 -41 25 -26 13 13 5 43 -10 43 -5 0 -12 -8 -15
-17z"/>
<path d="M4910 2060 c0 -5 5 -10 10 -10 6 0 10 5 10 10 0 6 -4 10 -10 10 -5 0
-10 -4 -10 -10z"/>
<path d="M3090 1556 c0 -18 6 -19 35 -6 11 5 15 9 8 9 -6 1 -18 4 -27 7 -11 4
-16 1 -16 -10z"/>
<path d="M3065 1510 c3 -5 14 -10 23 -10 15 0 15 2 2 10 -20 13 -33 13 -25 0z"/>
<path d="M2870 1480 c0 -5 5 -10 10 -10 6 0 10 5 10 10 0 6 -4 10 -10 10 -5 0
-10 -4 -10 -10z"/>
<path d="M5962 1584 c-14 -16 -5 -18 17 -5 7 5 9 11 5 14 -5 3 -15 -1 -22 -9z"/>
<path d="M2156 1625 c4 -8 8 -15 10 -15 2 0 4 7 4 15 0 8 -4 15 -10 15 -5 0
-7 -7 -4 -15z"/>
<path d="M2150 1510 c0 -5 5 -10 10 -10 6 0 10 5 10 10 0 6 -4 10 -10 10 -5 0
-10 -4 -10 -10z"/>
<path d="M5840 1456 c0 -9 5 -16 10 -16 6 0 10 4 10 9 0 6 -4 13 -10 16 -5 3
-10 -1 -10 -9z"/>
<path d="M6056 1463 c-12 -12 -6 -43 9 -43 8 0 15 9 15 19 0 21 -13 34 -24 24z"/>
<path d="M2040 1280 c0 -5 5 -10 11 -10 5 0 7 5 4 10 -3 6 -8 10 -11 10 -2 0
-4 -4 -4 -10z"/>
<path d="M2210 1274 c0 -8 5 -12 10 -9 6 4 8 11 5 16 -9 14 -15 11 -15 -7z"/>
<path d="M3980 1276 c0 -9 5 -16 10 -16 6 0 10 4 10 9 0 6 -4 13 -10 16 -5 3
-10 -1 -10 -9z"/>
<path d="M4165 1281 c-3 -5 -1 -12 5 -16 5 -3 10 1 10 9 0 18 -6 21 -15 7z"/>
<path d="M2935 1260 c-3 -5 -1 -10 4 -10 6 0 11 5 11 10 0 6 -2 10 -4 10 -3 0
-8 -4 -11 -10z"/>
<path d="M5200 1150 c0 -5 5 -10 11 -10 5 0 7 5 4 10 -3 6 -8 10 -11 10 -2 0
-4 -4 -4 -10z"/>
<path d="M3475 950 c3 -5 8 -10 11 -10 2 0 4 5 4 10 0 6 -5 10 -11 10 -5 0 -7
-4 -4 -10z"/>
<path d="M537 3332 c-19 -20 -50 -92 -44 -99 6 -5 42 53 56 90 12 32 10 33
-12 9z"/>
<path d="M120 3161 c0 -6 4 -13 10 -16 6 -3 7 1 4 9 -7 18 -14 21 -14 7z"/>
<path d="M598 3109 c-20 -11 -24 -34 -6 -45 12 -8 38 21 38 43 0 15 -9 16 -32
2z"/>
<path d="M819 3083 c8 -16 8 -23 -2 -27 -6 -3 -4 -5 7 -3 10 1 26 13 34 27 15
24 15 24 -3 8 -17 -16 -19 -16 -32 0 -13 15 -13 15 -4 -5z"/>
<path d="M1120 1075 c0 -8 4 -15 9 -15 4 0 20 -12 35 -26 21 -21 26 -23 26
-10 0 19 -43 66 -60 66 -5 0 -10 -7 -10 -15z"/>
<path d="M1045 1070 c-3 -5 1 -10 9 -10 9 0 16 5 16 10 0 6 -4 10 -9 10 -6 0
-13 -4 -16 -10z"/>
<path d="M875 990 c-4 -6 -12 -7 -18 -4 -7 4 -8 3 -4 -1 13 -15 34 -14 34 1 0
17 -4 18 -12 4z"/>
<path d="M853 941 c-22 -19 -21 -31 4 -31 8 0 13 8 11 18 -2 10 2 16 10 14 8
-1 11 2 7 8 -8 12 -6 13 -32 -9z"/>
<path d="M920 736 c0 -25 41 -66 66 -66 11 0 11 6 3 27 -22 59 -69 85 -69 39z"/>
</g>
</svg>
